<svg width="78" height="60" viewBox="0 0 78 60" fill="none" xmlns="http://www.w3.org/2000/svg">
<g clip-path="url(#clip0_138_341)">
<path d="M69.3423 0H7.80055C3.49243 0 0 3.54123 0 7.90956V52.0904C0 56.4588 3.49243 60 7.80055 60H69.3423C73.6504 60 77.1429 56.4588 77.1429 52.0904V7.90956C77.1429 3.54123 73.6504 0 69.3423 0Z" fill="#DE1E2E"/>
<path d="M69.5036 55.4708H8.04222C7.09341 55.4708 6.18336 55.0891 5.51176 54.4095C4.84017 53.7299 4.4619 52.8079 4.45996 51.8459V8.15424C4.45996 7.19089 4.83738 6.26699 5.50918 5.5858C6.18098 4.90461 7.09215 4.52192 8.04222 4.52192H69.5036C69.9758 4.51899 70.444 4.61078 70.8812 4.792C71.3183 4.97323 71.7158 5.24032 72.0508 5.57791C72.3858 5.91549 72.6516 6.31691 72.833 6.75905C73.0144 7.2012 73.1078 7.67536 73.1077 8.15424V51.8903C73.0962 52.8492 72.7104 53.7643 72.0349 54.4353C71.3594 55.1064 70.4492 55.4787 69.5036 55.4708ZM8.04222 6.0045C7.47993 6.0045 6.94067 6.23099 6.54307 6.63414C6.14548 7.0373 5.92211 7.58409 5.92211 8.15424V51.8903C5.93547 52.4514 6.16472 52.985 6.56088 53.377C6.95704 53.769 7.48869 53.9884 8.04222 53.9882H69.5036C69.7832 53.9911 70.0607 53.9379 70.3199 53.8317C70.5792 53.7254 70.8152 53.5682 71.0143 53.3691C71.2134 53.1699 71.3717 52.9328 71.48 52.6714C71.5884 52.41 71.6447 52.1294 71.6456 51.8459V8.15424C71.6456 7.87005 71.5901 7.58868 71.4821 7.3264C71.3742 7.06412 71.2161 6.82614 71.0169 6.62623C70.8177 6.42631 70.5814 6.26843 70.3216 6.16171C70.0619 6.05499 69.7838 6.00156 69.5036 6.0045H8.04222Z" fill="white"/>
<path d="M61.7754 38.5471V19.5849L64.7875 16.5308V12.172H61.1833V15.3818L58.4856 15.3299V12.172C58.4856 12.1349 55.1739 12.172 55.1739 12.172V15.3818H52.4981V12.172C52.4981 12.1275 48.9378 12.172 48.9378 12.172V16.5308L51.906 19.5849C51.906 19.5849 51.9498 29.0956 51.9498 28.9993C51.9498 28.9029 43.9665 28.9993 43.9519 28.9993C43.9373 28.9993 43.9519 25.2409 43.9519 25.2409L45.9769 23.1876V17.8354C45.9769 17.7317 42.9649 17.8799 42.7675 17.8354C42.7017 17.8354 42.7675 20.9859 42.7675 20.9859H40.2526V17.8799H36.9921C36.9579 18.8982 36.975 19.9175 37.0432 20.934H34.2286V17.8799H31.0631C30.968 17.8799 31.0631 23.069 31.0631 23.069L33.3367 25.3744L33.3879 28.977H25.3461V19.5849L28.2119 16.679V12.172H24.6442V15.3818L21.8808 15.3299V12.172H18.7737C18.7737 12.172 18.7737 15.3892 18.7737 15.3818C18.7737 15.3744 16.2515 15.3299 16.0103 15.3299V12.172C16.0103 12.172 12.4061 12.1275 12.4061 12.172V16.7828L15.1695 19.533V39.1624C15.1695 39.1624 12.3037 42.0163 12.3037 42.1275C12.3037 42.2387 12.3549 46.8866 12.3549 46.8866H65.0653V41.8681L61.7754 38.5471ZM21.3398 41.8162H19.1466V33.9066H21.3398V41.8162ZM21.391 28.9993H19.1977V21.0897H21.391V28.9993ZM30.0322 39.4589H27.839V33.8547H30.0322V39.4589ZM44.449 44.9667H33.439V37.109C33.439 37.109 35.5518 31.5419 38.6735 31.4974H38.7686L38.8709 31.3862L38.9952 31.5122C42.3947 31.7939 44.449 37.0942 44.449 37.0942V44.9667ZM49.7785 39.5108H47.5853V33.9066H49.7785V39.5108ZM58.3686 41.8162H56.1754V33.9066H58.3686V41.8162ZM58.4856 28.0949H56.2924V20.1853H58.4856V28.0949Z" fill="white"/>
</g>
<defs>
<clipPath id="clip0_138_341">
<rect width="77.1429" height="60" fill="white"/>
</clipPath>
</defs>
</svg>
