<svg width="450" height="60" viewBox="0 0 450 60" fill="none" xmlns="http://www.w3.org/2000/svg">
<mask id="mask0_138_347" style="mask-type:luminance" maskUnits="userSpaceOnUse" x="0" y="0" width="418" height="60">
<path d="M0.142578 60H418V0H0.142578V60Z" fill="white"/>
</mask>
<g mask="url(#mask0_138_347)">
<path d="M197.139 29.9995L224.966 2.73319L252.794 29.9995L224.966 57.2658L197.139 29.9995ZM224.966 1.99939L196.39 29.9995L224.966 58.0006L253.542 29.9995L224.966 1.99939Z" fill="#001B69"/>
<path d="M224.925 39.5847H225.435V13.5334H224.925V39.5847Z" fill="#001B69"/>
<path d="M223.942 39.6601L222.284 22.8405L221.821 23.125L223.436 39.7314C223.609 39.7016 223.78 39.6774 223.942 39.6601Z" fill="#001B69"/>
<path d="M226.926 39.7305L228.534 23.1857L228.073 22.9022L226.421 39.661C226.585 39.6794 226.755 39.7015 226.926 39.7305Z" fill="#001B69"/>
<path d="M222.479 39.9303L220.438 30.0987L220.012 30.4053L221.989 40.0701C222.154 40.018 222.319 39.9717 222.479 39.9303Z" fill="#001B69"/>
<path d="M221.098 40.3886L218.967 33.444L218.565 33.7815L220.631 40.592C220.777 40.5245 220.932 40.4561 221.098 40.3886Z" fill="#001B69"/>
<path d="M219.912 40.9621L217.834 35.6597L217.44 36.0444L219.471 41.2263C219.612 41.1357 219.76 41.046 219.912 40.9621Z" fill="#001B69"/>
<path d="M218.81 41.6687L216.648 37.4684L216.269 37.8406L218.404 41.9869C218.547 41.8693 218.681 41.7652 218.81 41.6687Z" fill="#001B69"/>
<path d="M217.857 42.4678L215.488 38.8316L215.119 39.1932L217.489 42.8333C217.614 42.7031 217.734 42.5835 217.857 42.4678Z" fill="#001B69"/>
<path d="M231.959 41.9873L234.128 37.7764L233.747 37.4052L231.553 41.6691C231.688 41.7694 231.824 41.8774 231.959 41.9873Z" fill="#001B69"/>
<path d="M230.892 41.2255L232.924 36.0387L232.531 35.653L230.45 40.9613C230.596 41.0432 230.745 41.1319 230.892 41.2255Z" fill="#001B69"/>
<path d="M229.73 40.5925L231.795 33.7858L231.394 33.4483L229.264 40.3891C229.433 40.4585 229.586 40.526 229.73 40.5925Z" fill="#001B69"/>
<path d="M228.374 40.0702L230.362 30.3514L229.935 30.0458L227.884 39.9304C228.045 39.9728 228.211 40.0191 228.374 40.0702Z" fill="#001B69"/>
<path d="M232.871 42.833L235.213 39.2276L234.844 38.8661L232.503 42.4666C232.628 42.5823 232.75 42.7057 232.871 42.833Z" fill="#001B69"/>
<path d="M17.6739 23.1611H8.21484V14.2524H37.8782V23.1611H28.4192V45.7479H17.6739V23.1611Z" fill="#001B69"/>
<path d="M57.3028 37.7842C59.644 37.7842 60.8386 36.8393 60.8386 35.4893V35.3987C60.8386 34.0497 59.6902 33.1037 57.3481 33.1037H51.9307V37.7842H57.3028ZM56.6139 26.6258C58.9098 26.6258 60.012 25.8612 60.012 24.4649V24.3762C60.012 22.9809 58.8636 22.2153 56.5677 22.2153H51.9307V26.6258H56.6139ZM41.4609 14.2525H59.4609C63.9149 14.2525 66.7156 15.2418 68.5992 17.0864C69.7466 18.2117 70.5733 19.8317 70.5733 21.9916V22.0813C70.5733 25.8159 68.2774 28.1108 64.8331 29.2804C68.9662 30.4501 71.6292 32.61 71.6292 36.9289V37.0186C71.6292 42.0588 67.4045 45.748 59.2769 45.748H41.4609V14.2525Z" fill="#001B69"/>
<path d="M72.457 41.0234L78.1972 34.3199C81.6868 36.9292 85.6812 38.0092 89.4473 38.0092C91.3752 38.0092 92.2018 37.5135 92.2018 36.6592V36.5695C92.2018 35.6689 91.1921 35.1742 87.7488 34.4993C80.5384 33.0596 74.2018 31.0356 74.2018 24.3755V24.2858C74.2018 18.3017 78.9776 13.6674 87.8393 13.6674C94.0391 13.6674 98.6309 15.1071 102.35 17.9863L97.1154 25.0949C94.0844 22.9359 90.458 21.9919 87.4723 21.9919C85.8653 21.9919 85.1301 22.5309 85.1301 23.2955V23.3862C85.1301 24.2415 86.003 24.7805 89.4011 25.4111C97.6212 26.8961 103.13 29.2344 103.13 35.5792V35.6689C103.13 42.2837 97.5749 46.3326 88.9415 46.3326C82.4209 46.3326 76.544 44.5333 72.457 41.0234Z" fill="#001B69"/>
<path d="M113.203 14.541H110.866V13.3656H116.846V14.541H114.509V20.5859H113.203V14.541Z" fill="#001B69"/>
<path d="M122.416 17.8726V17.8524C122.416 16.8004 121.69 16.109 120.827 16.109C119.964 16.109 119.206 16.81 119.206 17.8524V17.8726C119.206 18.9256 119.964 19.616 120.827 19.616C121.7 19.616 122.416 18.9449 122.416 17.8726ZM119.237 19.7404V20.5851H117.964V13.0561H119.237V16.0473C119.648 15.4803 120.226 15.0261 121.122 15.0261C122.437 15.0261 123.711 16.0473 123.711 17.8524V17.8726C123.711 19.6777 122.447 20.6989 121.122 20.6989C120.206 20.6989 119.627 20.2457 119.237 19.7404Z" fill="#001B69"/>
<path d="M125.092 15.1398H126.366V20.585H125.092V15.1398ZM125.039 13.1177H126.408V14.3038H125.039V13.1177Z" fill="#001B69"/>
<path d="M128.104 20.5859H129.377V13.056H128.104V20.5859Z" fill="#001B69"/>
<path d="M131.114 15.1398H132.387V20.585H131.114V15.1398ZM131.062 13.1177H132.43V14.3038H131.062V13.1177Z" fill="#001B69"/>
<path d="M133.6 19.8736L134.168 19.0279C134.768 19.4715 135.421 19.6981 135.99 19.6981C136.536 19.6981 136.853 19.4715 136.853 19.1108V19.0906C136.853 18.6673 136.264 18.5226 135.61 18.3269C134.789 18.0993 133.873 17.7696 133.873 16.7282V16.7079C133.873 15.6752 134.747 15.0465 135.852 15.0465C136.547 15.0465 137.306 15.2837 137.894 15.6655L137.39 16.5527C136.853 16.2335 136.285 16.0368 135.822 16.0368C135.327 16.0368 135.042 16.2644 135.042 16.5835V16.6038C135.042 16.9962 135.642 17.1611 136.294 17.3675C137.106 17.6143 138.021 17.9759 138.021 18.9556V18.9758C138.021 20.1214 137.116 20.6893 135.957 20.6893C135.168 20.6893 134.294 20.4107 133.6 19.8736Z" fill="#001B69"/>
<path d="M139.391 15.1398H140.664V20.585H139.391V15.1398ZM139.338 13.1177H140.707V14.3038H139.338V13.1177Z" fill="#001B69"/>
<path d="M111.467 32.9661H112.761V25.7467H111.467V32.9661Z" fill="#001B69"/>
<path d="M114.583 27.5208H115.856V28.3664C116.215 27.8506 116.73 27.407 117.593 27.407C118.846 27.407 119.572 28.2324 119.572 29.5014V32.9659H118.299V29.8716C118.299 29.0269 117.867 28.5419 117.109 28.5419C116.372 28.5419 115.856 29.0472 115.856 29.8929V32.9659H114.583V27.5208Z" fill="#001B69"/>
<path d="M121.376 31.4607V28.593H120.67V27.5207H121.376V26.0252H122.649V27.5207H124.144V28.593H122.649V31.265C122.649 31.75 122.902 31.9457 123.334 31.9457C123.617 31.9457 123.87 31.8831 124.123 31.7596V32.7808C123.806 32.9563 123.449 33.0594 122.975 33.0594C122.039 33.0594 121.376 32.6564 121.376 31.4607Z" fill="#001B69"/>
<path d="M129.081 29.8618C128.998 29.0576 128.513 28.4289 127.672 28.4289C126.893 28.4289 126.346 29.0161 126.229 29.8618H129.081ZM124.967 30.2638V30.2436C124.967 28.6854 126.093 27.4068 127.683 27.4068C129.45 27.4068 130.345 28.7683 130.345 30.3362C130.345 30.449 130.334 30.5637 130.324 30.6862H126.24C126.377 31.5733 127.02 32.0689 127.84 32.0689C128.46 32.0689 128.902 31.8423 129.345 31.419L130.092 32.0689C129.565 32.688 128.84 33.0901 127.819 33.0901C126.209 33.0901 124.967 31.9455 124.967 30.2638Z" fill="#001B69"/>
<path d="M131.629 27.5208H132.903V28.7473C133.25 27.9335 133.892 27.3761 134.871 27.4176V28.7377H134.798C133.682 28.7377 132.903 29.4493 132.903 30.8928V32.9659H131.629V27.5208Z" fill="#001B69"/>
<path d="M135.979 27.5208H137.253V28.3664C137.61 27.8506 138.127 27.407 138.99 27.407C140.242 27.407 140.968 28.2324 140.968 29.5014V32.9659H139.694V29.8716C139.694 29.0269 139.263 28.5419 138.505 28.5419C137.768 28.5419 137.253 29.0472 137.253 29.8929V32.9659H135.979V27.5208Z" fill="#001B69"/>
<path d="M145.939 30.6867C145.614 30.5632 145.161 30.4697 144.666 30.4697C143.866 30.4697 143.392 30.7898 143.392 31.3154V31.3366C143.392 31.8524 143.866 32.1417 144.466 32.1417C145.308 32.1417 145.939 31.6769 145.939 30.9962V30.6867ZM145.908 32.9662V32.296C145.529 32.7396 144.95 33.079 144.108 33.079C143.055 33.079 142.129 32.4917 142.129 31.3983V31.378C142.129 30.1717 143.087 29.5932 144.381 29.5932C145.056 29.5932 145.487 29.6867 145.919 29.8208V29.7176C145.919 28.9645 145.433 28.5518 144.55 28.5518C143.929 28.5518 143.465 28.6858 142.96 28.8931L142.613 27.8922C143.223 27.6232 143.824 27.4381 144.73 27.4381C146.37 27.4381 147.171 28.2837 147.171 29.7388V32.9662H145.908Z" fill="#001B69"/>
<path d="M148.899 31.4607V28.593H148.193V27.5207H148.899V26.0252H150.173V27.5207H151.667V28.593H150.173V31.265C150.173 31.75 150.425 31.9457 150.857 31.9457C151.141 31.9457 151.394 31.8831 151.647 31.7596V32.7808C151.331 32.9563 150.972 33.0594 150.499 33.0594C149.562 33.0594 148.899 32.6564 148.899 31.4607Z" fill="#001B69"/>
<path d="M153.027 27.5209H154.3V32.9661H153.027V27.5209ZM152.974 25.4988H154.342V26.6849H152.974V25.4988Z" fill="#001B69"/>
<path d="M160.311 30.2742V30.254C160.311 29.2945 159.605 28.5 158.607 28.5C157.584 28.5 156.932 29.2849 156.932 30.2327V30.254C156.932 31.2028 157.637 32.007 158.627 32.007C159.659 32.007 160.311 31.2134 160.311 30.2742ZM155.658 30.2742V30.254C155.658 28.6957 156.922 27.4065 158.627 27.4065C160.332 27.4065 161.584 28.6755 161.584 30.2327V30.254C161.584 31.8006 160.322 33.0898 158.607 33.0898C156.911 33.0898 155.658 31.8209 155.658 30.2742Z" fill="#001B69"/>
<path d="M162.882 27.5208H164.156V28.3664C164.513 27.8506 165.03 27.407 165.893 27.407C167.145 27.407 167.871 28.2324 167.871 29.5014V32.9659H166.598V29.8716C166.598 29.0269 166.167 28.5419 165.408 28.5419C164.671 28.5419 164.156 29.0472 164.156 29.8929V32.9659H162.882V27.5208Z" fill="#001B69"/>
<path d="M172.842 30.6867C172.516 30.5632 172.063 30.4697 171.568 30.4697C170.768 30.4697 170.295 30.7898 170.295 31.3154V31.3366C170.295 31.8524 170.768 32.1417 171.368 32.1417C172.21 32.1417 172.842 31.6769 172.842 30.9962V30.6867ZM172.81 32.9662V32.296C172.431 32.7396 171.853 33.079 171.01 33.079C169.957 33.079 169.031 32.4917 169.031 31.3983V31.378C169.031 30.1717 169.99 29.5932 171.284 29.5932C171.958 29.5932 172.389 29.6867 172.821 29.8208V29.7176C172.821 28.9645 172.336 28.5518 171.452 28.5518C170.831 28.5518 170.368 28.6858 169.863 28.8931L169.515 27.8922C170.126 27.6232 170.727 27.4381 171.632 27.4381C173.273 27.4381 174.074 28.2837 174.074 29.7388V32.9662H172.81Z" fill="#001B69"/>
<path d="M175.666 32.967H176.939V25.4371H175.666V32.967Z" fill="#001B69"/>
<path d="M115.856 42.48L114.583 39.592L113.319 42.48H115.856ZM114.003 38.0762H115.204L118.445 45.3477H117.078L116.33 43.6043H112.846L112.087 45.3477H110.762L114.003 38.0762Z" fill="#001B69"/>
<path d="M119.637 39.902H120.911V45.3472H119.637V39.902ZM119.585 37.88H120.954V39.066H119.585V37.88Z" fill="#001B69"/>
<path d="M122.575 39.9018H123.849V41.1283C124.196 40.3145 124.838 39.7571 125.817 39.7986V41.1187H125.743C124.627 41.1187 123.849 41.8303 123.849 43.2738V45.3469H122.575V39.9018Z" fill="#001B69"/>
<path d="M131.377 42.6344V42.6142C131.377 41.5622 130.651 40.8708 129.788 40.8708C128.924 40.8708 128.166 41.5718 128.166 42.6142V42.6344C128.166 43.6874 128.924 44.3778 129.788 44.3778C130.66 44.3778 131.377 43.7067 131.377 42.6344ZM126.924 39.9017H128.198V40.8091C128.609 40.2421 129.186 39.7879 130.082 39.7879C131.397 39.7879 132.671 40.8091 132.671 42.6142V42.6344C132.671 44.4395 131.407 45.4607 130.082 45.4607C129.166 45.4607 128.587 45.0075 128.198 44.5022V46.9977H126.924V39.9017Z" fill="#001B69"/>
<path d="M138.326 42.6551V42.6348C138.326 41.6754 137.62 40.8808 136.621 40.8808C135.599 40.8808 134.946 41.6657 134.946 42.6136V42.6348C134.946 43.5836 135.652 44.3878 136.642 44.3878C137.673 44.3878 138.326 43.5943 138.326 42.6551ZM133.673 42.6551V42.6348C133.673 41.0766 134.936 39.7874 136.642 39.7874C138.346 39.7874 139.599 41.0563 139.599 42.6136V42.6348C139.599 44.1815 138.336 45.4707 136.621 45.4707C134.926 45.4707 133.673 44.2017 133.673 42.6551Z" fill="#001B69"/>
<path d="M140.896 39.9018H142.171V41.1283C142.517 40.3145 143.16 39.7571 144.139 39.7986V41.1187H144.065C142.949 41.1187 142.171 41.8303 142.171 43.2738V45.3469H140.896V39.9018Z" fill="#001B69"/>
<path d="M145.508 43.8417V40.974H144.803V39.9017H145.508V38.4062H146.783V39.9017H148.277V40.974H146.783V43.6459C146.783 44.131 147.035 44.3267 147.467 44.3267C147.75 44.3267 148.003 44.264 148.256 44.1406V45.1618C147.94 45.3373 147.582 45.4404 147.108 45.4404C146.172 45.4404 145.508 45.0374 145.508 43.8417Z" fill="#001B69"/>
<path d="M290.43 21.05V20.214C289.754 20.0221 288.865 19.8303 287.744 19.8303C286.038 19.8303 285.059 20.5621 285.059 21.6421V21.6768C285.059 22.8089 286.126 23.4723 287.372 23.4723C289.06 23.4723 290.43 22.4781 290.43 21.05ZM283.674 21.7472V21.7125C283.674 19.7792 285.273 18.7676 287.602 18.7676C288.775 18.7676 289.593 18.9248 290.411 19.1514V18.8728C290.411 17.2702 289.416 16.4341 287.691 16.4341C286.606 16.4341 285.753 16.6945 284.9 17.0783L284.491 15.98C285.504 15.5277 286.481 15.2134 287.833 15.2134C289.132 15.2134 290.145 15.5625 290.803 16.2075C291.442 16.8343 291.762 17.705 291.762 18.8554V24.3603H290.411V23.0181C289.771 23.8204 288.723 24.5513 287.104 24.5513C285.38 24.5513 283.674 23.5938 283.674 21.7472Z" fill="#001B69"/>
<path d="M299.402 18.2976V18.2628C299.402 14.7954 302.158 11.9566 305.927 11.9566C308.167 11.9566 309.518 12.5487 310.816 13.6286L309.092 15.6671C308.131 14.8831 307.278 14.4299 305.837 14.4299C303.846 14.4299 302.264 16.155 302.264 18.2281V18.2628C302.264 20.4922 303.829 22.1305 306.033 22.1305C307.029 22.1305 307.918 21.8865 308.61 21.3986V19.6562H305.856V17.3401H311.261V22.6358C309.98 23.6984 308.221 24.5691 305.945 24.5691C302.068 24.5691 299.402 21.9029 299.402 18.2976Z" fill="#001B69"/>
<path d="M313.602 15.0225H316.304V16.9037C316.855 15.6145 317.745 14.7785 319.344 14.8479V17.6183H319.201C317.406 17.6183 316.304 18.6809 316.304 20.9102V24.3604H313.602V15.0225Z" fill="#001B69"/>
<path d="M327.945 19.743V19.7092C327.945 18.3323 326.932 17.1308 325.438 17.1308C323.892 17.1308 322.967 18.2976 322.967 19.6736V19.7092C322.967 21.0852 323.981 22.2877 325.474 22.2877C327.021 22.2877 327.945 21.1199 327.945 19.743ZM320.3 19.743V19.7092C320.3 17.0257 322.505 14.8484 325.474 14.8484C328.424 14.8484 330.612 16.991 330.612 19.6736V19.7092C330.612 22.3908 328.408 24.5691 325.438 24.5691C322.487 24.5691 320.3 22.4265 320.3 19.743Z" fill="#001B69"/>
<path d="M332.492 21.067V15.022H335.194V20.2309C335.194 21.4854 335.799 22.1305 336.83 22.1305C337.861 22.1305 338.52 21.4854 338.52 20.2309V15.022H341.222V24.3599H338.52V23.036C337.897 23.8199 337.098 24.5344 335.728 24.5344C333.684 24.5344 332.492 23.2105 332.492 21.067Z" fill="#001B69"/>
<path d="M350.942 19.7091V19.6734C350.942 18.1228 349.875 17.0949 348.613 17.0949C347.352 17.0949 346.302 18.1228 346.302 19.6734V19.7091C346.302 21.2586 347.352 22.2875 348.613 22.2875C349.875 22.2875 350.942 21.276 350.942 19.7091ZM343.635 15.0228H346.337V16.364C346.995 15.4924 347.902 14.8482 349.306 14.8482C351.529 14.8482 353.644 16.555 353.644 19.6734V19.7091C353.644 22.8265 351.565 24.5342 349.306 24.5342C347.866 24.5342 346.978 23.8901 346.337 23.1408V27.1473H343.635V15.0228Z" fill="#001B69"/>
<path d="M361.889 18.9595C361.729 17.7744 361.017 16.9731 359.88 16.9731C358.76 16.9731 358.031 17.7581 357.817 18.9595H361.889ZM355.169 19.7425V19.7087C355.169 17.0435 357.107 14.8479 359.88 14.8479C363.062 14.8479 364.521 17.2701 364.521 19.918C364.521 20.1272 364.502 20.3702 364.485 20.6151H357.854C358.12 21.8166 358.973 22.4434 360.183 22.4434C361.089 22.4434 361.747 22.1647 362.494 21.4849L364.041 22.8272C363.151 23.9071 361.871 24.5686 360.146 24.5686C357.285 24.5686 355.169 22.5996 355.169 19.7425Z" fill="#001B69"/>
<path d="M379.288 19.2552L377.635 15.3008L375.982 19.2552H379.288ZM376.408 12.0782H378.933L384.267 24.36H381.404L380.267 21.6244H375.004L373.866 24.36H371.074L376.408 12.0782Z" fill="#001B69"/>
<path d="M391.034 21.9389C393.275 21.9389 394.787 20.4578 394.787 18.2978V18.2621C394.787 16.1022 393.275 14.5864 391.034 14.5864H388.919V21.9389H391.034ZM386.181 12.1651H391.034C394.946 12.1651 397.648 14.7956 397.648 18.2274V18.2621C397.648 21.6939 394.946 24.3601 391.034 24.3601H386.181V12.1651Z" fill="#001B69"/>
<path d="M404.985 18.3154C406.355 18.3154 407.154 17.5132 407.154 16.4679V16.4342C407.154 15.2317 406.301 14.5866 404.932 14.5866H402.816V18.3154H404.985ZM400.078 12.1654H405.163C408.132 12.1654 409.927 13.8895 409.927 16.3811V16.4158C409.927 19.2382 407.687 20.702 404.895 20.702H402.816V24.3604H400.078V12.1654Z" fill="#001B69"/>
<path d="M290.43 41.9464V41.1104C289.754 40.9195 288.865 40.7266 287.744 40.7266C286.038 40.7266 285.059 41.4585 285.059 42.5385V42.5732C285.059 43.7062 286.126 44.3677 287.372 44.3677C289.06 44.3677 290.43 43.3745 290.43 41.9464ZM283.674 42.6436V42.6089C283.674 40.6746 285.273 39.665 287.602 39.665C288.775 39.665 289.593 39.8212 290.411 40.0468V39.7682C290.411 38.1656 289.416 37.3296 287.691 37.3296C286.606 37.3296 285.753 37.5909 284.9 37.9746L284.491 36.8773C285.504 36.4232 286.481 36.1107 287.833 36.1107C289.132 36.1107 290.145 36.4598 290.803 37.1039C291.442 37.7307 291.762 38.6014 291.762 39.7518V45.2567H290.411V43.9154C289.771 44.7158 288.723 45.4486 287.104 45.4486C285.38 45.4486 283.674 44.4901 283.674 42.6436Z" fill="#001B69"/>
<path d="M294.782 36.2503H296.151V45.2565H294.782V36.2503ZM294.692 32.8002H296.257V34.2813H294.692V32.8002Z" fill="#001B69"/>
<path d="M299.33 36.2502H300.7V38.601C301.374 37.1035 302.708 36.0236 304.45 36.093V37.5384H304.344C302.335 37.5384 300.7 38.9501 300.7 41.6674V45.2563H299.33V36.2502Z" fill="#001B69"/>
<path d="M314.404 40.7796V40.7439C314.404 38.6196 312.91 37.26 311.169 37.26C309.463 37.26 307.844 38.6707 307.844 40.7265V40.7613C307.844 42.8518 309.463 44.2461 311.169 44.2461C312.948 44.2461 314.404 42.9569 314.404 40.7796ZM306.528 36.2505H307.898V38.0623C308.643 36.9814 309.729 36.0586 311.417 36.0586C313.622 36.0586 315.809 37.7653 315.809 40.7265V40.7613C315.809 43.7061 313.64 45.4485 311.417 45.4485C309.71 45.4485 308.609 44.5421 307.898 43.5316V48.0433H306.528V36.2505Z" fill="#001B69"/>
<path d="M325.938 40.7966V40.7619C325.938 38.8286 324.461 37.2424 322.524 37.2424C320.533 37.2424 319.164 38.8286 319.164 40.7272V40.7619C319.164 42.6953 320.622 44.2641 322.559 44.2641C324.551 44.2641 325.938 42.6953 325.938 40.7966ZM317.759 40.7966V40.7619C317.759 38.2182 319.786 36.0583 322.559 36.0583C325.315 36.0583 327.343 38.1835 327.343 40.7272V40.7619C327.343 43.3056 325.298 45.4656 322.524 45.4656C319.767 45.4656 317.759 43.3404 317.759 40.7966Z" fill="#001B69"/>
<path d="M329.809 36.2502H331.177V38.601C331.854 37.1035 333.187 36.0236 334.929 36.093V37.5384H334.823C332.813 37.5384 331.177 38.9501 331.177 41.6674V45.2563H329.809V36.2502Z" fill="#001B69"/>
<path d="M337.487 42.8701V37.4346H336.207V36.2505H337.487V33.5322H338.856V36.2505H341.772V37.4346H338.856V42.6946C338.856 43.7929 339.478 44.194 340.403 44.194C340.865 44.194 341.256 44.1063 341.736 43.8797V45.03C341.256 45.273 340.741 45.4128 340.082 45.4128C338.607 45.4128 337.487 44.6983 337.487 42.8701Z" fill="#001B69"/>
</g>
</svg>
