<svg width="236" height="60" viewBox="0 0 236 60" fill="none" xmlns="http://www.w3.org/2000/svg">
<g clip-path="url(#clip0_138_418)">
<path d="M52.5258 0H9.80812C4.69812 0 0.552734 4.06222 0.552734 9.0697V50.9303C0.552734 55.9438 4.69812 60 9.80812 60H52.5258C57.6358 60 61.7812 55.9378 61.7812 50.9303V9.0697C61.7812 4.06222 57.6358 0 52.5258 0ZM58.3867 50.5534C58.3867 53.9276 55.5905 56.6677 52.1472 56.6677H10.1927C6.74945 56.6677 3.9533 53.9336 3.9533 50.5534V9.44062C3.9533 6.06641 6.74334 3.33234 10.1927 3.33234H52.1472C55.5905 3.33234 58.3867 6.07239 58.3867 9.44062V50.5534Z" fill="#003478"/>
<path d="M52.2019 36.6497C52.2019 36.7694 52.2019 36.895 52.2019 37.0207C52.0553 41.1786 48.1908 44.3016 43.0442 44.4272C37.4396 44.5588 34.0086 41.6094 33.8864 37.5711V31.6542H31.5665V26.0964H33.8864V22.7939H29.3564V41.1308H21.4198V22.7939H10.0703V15.5729H40.6754V26.0664V26.0964H50.877V31.6542H40.6754V35.543C40.6754 37.0805 41.9452 38.3249 43.5081 38.3249C44.6742 38.3249 45.6755 37.6369 46.1089 36.6497H52.1958H52.2019Z" fill="#003478"/>
<path d="M87.9417 18.5043H82.0014V31.6302H77.911V18.5043H71.9707V15.5608H87.9356V18.5043H87.9417Z" fill="#003478"/>
<path d="M102.759 31.6302H90.665V15.5608H102.588V18.5043H94.7494V21.8725H102.228V24.816H94.7494V28.6807H102.753V31.6242L102.759 31.6302Z" fill="#003478"/>
<path d="M121.282 18.5043H115.341V31.6302H111.251V18.5043H105.311V15.5608H121.275V18.5043H121.282Z" fill="#003478"/>
<path d="M131.337 15.5608C134.701 15.5608 136.697 17.7744 136.697 20.1794C136.697 21.9443 135.757 23.2664 133.883 24.116C135.568 24.9416 136.069 26.9218 138.382 31.6302H133.883C132.125 28.1902 131.478 25.1031 129.268 25.1031H128.089V31.6302H124.005V15.5608H131.337ZM128.089 22.1597H130.25C131.38 22.1597 132.485 21.687 132.485 20.323C132.485 19.1205 131.691 18.5102 130.153 18.5102H128.083V22.1656L128.089 22.1597Z" fill="#003478"/>
<path d="M159.061 31.6302H154.659L153.31 28.4474H145.978L144.75 31.6302H140.422L147.034 15.5608H151.771L159.055 31.6302H159.061ZM149.47 19.4017L147.064 25.6475H152.113L149.47 19.4017Z" fill="#003478"/>
<path d="M183.243 18.5043H177.302V31.6302H173.212V18.5043H167.271V15.5608H183.236V18.5043H183.243Z" fill="#003478"/>
<path d="M198.06 31.6302H185.966V15.5608H197.889V18.5043H190.05V21.8725H197.529V24.816H190.05V28.6807H198.06V31.6242V31.6302Z" fill="#003478"/>
<path d="M216.18 30.2542C213.903 31.4089 212.181 31.8576 209.764 31.8576C203.42 31.8576 200.258 27.8073 200.258 23.6554C200.258 19.5034 203.823 15.3634 210.075 15.3634C212.352 15.3634 214.385 15.836 215.991 16.7753V20.3589C214.196 19.3718 212.377 18.7077 210.362 18.7077C206.888 18.7077 204.446 20.7358 204.446 23.5836C204.446 26.4313 206.864 28.5073 210.264 28.5073C212.395 28.5073 213.83 27.8492 216.18 26.7424V30.2542Z" fill="#003478"/>
<path d="M235.259 31.6302H231.174V25.127H223V31.6302H218.909V15.5608H223V22.0161H231.174V15.5608H235.259V31.6302Z" fill="#003478"/>
</g>
<defs>
<clipPath id="clip0_138_418">
<rect width="234.706" height="60" fill="white" transform="translate(0.552734)"/>
</clipPath>
</defs>
</svg>
